<svg xmlns="http://www.w3.org/2000/svg" viewBox="0 0 639.65 397.77"><defs><style>.cls-1{fill:#47bb8d;}.cls-2{fill:#fff;}</style></defs><title>valuexlabs logo 2</title><g id="Layer_2" data-name="Layer 2"><g id="Layer_1-2" data-name="Layer 1"><polygon class="cls-1" points="0 397.77 109.67 208.73 180.86 345.44 155.56 397.77 0 397.77"/><polygon class="cls-1" points="639.64 397.77 529.97 208.73 458.79 345.44 484.08 397.77 639.64 397.77"/><path class="cls-2" d="M552.34,1.85a37.26,37.26,0,0,1-3,3.36L348,206.56a36.68,36.68,0,0,1-51.9,0h0a.86.86,0,0,1-.13-.14l-.14-.13L218.2,128.65a36.71,36.71,0,0,1,0-51.91h0a36.71,36.71,0,0,1,51.91,0l44,44a11.26,11.26,0,0,0,15.94,0L450.78,0H93.37A28.58,28.58,0,0,0,68,41.66l164.69,320.1a66.38,66.38,0,0,0,59,36H350a66.37,66.37,0,0,0,59.48-36.91L567.78,41.27A28.61,28.61,0,0,0,552.34,1.85Z"/></g></g></svg>