<svg xmlns="http://www.w3.org/2000/svg" viewBox="0 0 805.88 501.15"><defs><style>.cls-1{fill:#fff;}.cls-2{fill:#47bb8d;}</style></defs><title>valuexlabs logo</title><g id="Layer_2" data-name="Layer 2"><g id="Layer_1-2" data-name="Layer 1"><polygon class="cls-1" points="0 501.15 138.18 262.98 227.86 435.21 195.99 501.15 0 501.15"/><polygon class="cls-1" points="805.88 501.15 667.7 262.98 578.02 435.21 609.89 501.15 805.88 501.15"/><path class="cls-2" d="M695.88,2.33a46.08,46.08,0,0,1-3.73,4.23L438.47,260.25a46.25,46.25,0,0,1-65.39,0h0l-.17-.18-.17-.16-97.83-97.83a46.23,46.23,0,0,1,0-65.39h0a46.23,46.23,0,0,1,65.39,0l55.42,55.42a14.21,14.21,0,0,0,20.1,0L567.93,0H117.63a36,36,0,0,0-32,52.48l207.49,403.3a83.62,83.62,0,0,0,74.36,45.37h73.47a83.62,83.62,0,0,0,74.94-46.51L715.34,52A36,36,0,0,0,695.88,2.33Z"/></g></g></svg>